<svg width="16" height="16" viewBox="0 0 16 16" fill="none" xmlns="http://www.w3.org/2000/svg">
<path d="M0.658691 7.99999C0.658691 12.0511 3.90066 15.3333 7.90201 15.3333C11.9034 15.3333 15.1453 12.0511 15.1453 7.99999C15.1453 3.94891 11.9034 0.666656 7.90201 0.666656C3.90066 0.666656 0.658691 3.94891 0.658691 7.99999ZM7.90201 1.61289C11.3689 1.61289 14.2107 4.45456 14.2107 7.99999C14.2107 11.5099 11.4039 14.3871 7.90201 14.3871C4.43515 14.3871 1.59331 11.5454 1.59331 7.99999C1.59331 4.49004 4.4001 1.61289 7.90201 1.61289ZM8.2671 4.34811L11.6288 7.74865C11.7661 7.88762 11.7661 8.11235 11.6288 8.25133L8.2671 11.6519C8.12983 11.7908 7.90786 11.7908 7.77058 11.6519L7.56906 11.4478C7.43178 11.3089 7.43178 11.0782 7.5749 10.9422L10.075 8.50268H4.51401C4.32124 8.50268 4.16353 8.343 4.16353 8.14784V7.85214C4.16353 7.65698 4.32124 7.4973 4.51401 7.4973H10.0721L7.57198 5.05779C7.43178 4.91881 7.42886 4.69112 7.56613 4.55214L7.76766 4.34811C7.90786 4.20913 8.12983 4.20913 8.2671 4.34811Z" fill="white"/>
</svg>
