<svg width="16" height="16" viewBox="0 0 16 16" fill="none" xmlns="http://www.w3.org/2000/svg">
<g clip-path="url(#clip0_681_688)">
<path d="M9.1833 2.49998C9.43291 2.49998 9.63714 2.70623 9.63714 2.95831V7.08331H12.3006C12.502 7.08331 12.6041 7.32967 12.4623 7.4729L8.40042 11.5864C8.22172 11.7669 7.93523 11.7669 7.75653 11.5864L3.70032 7.4729C3.55849 7.32967 3.65777 7.08331 3.862 7.08331H6.52549V2.95831C6.52549 2.70623 6.72972 2.49998 6.97933 2.49998H9.1833ZM9.1833 1.58331H6.97933C6.22765 1.58331 5.6178 2.1992 5.6178 2.95831V6.16665H3.862C2.85504 6.16665 2.34446 7.39842 3.05927 8.12029L7.11548 12.2338C7.64875 12.7724 8.51105 12.7724 9.04431 12.2338L13.1034 8.12316C13.8153 7.40415 13.3104 6.16951 12.3006 6.16951H10.5448V2.95831C10.5448 2.1992 9.93214 1.58331 9.1833 1.58331ZM13.526 14.0729V13.8437C13.526 13.6547 13.3728 13.5 13.1856 13.5H2.97417C2.78696 13.5 2.63379 13.6547 2.63379 13.8437V14.0729C2.63379 14.262 2.78696 14.4166 2.97417 14.4166H13.1856C13.3728 14.4166 13.526 14.262 13.526 14.0729Z" fill="#27147A"/>
</g>
<defs>
<clipPath id="clip0_681_688">
<rect width="10.8922" height="14.6667" fill="white" transform="translate(2.63379 0.666656)"/>
</clipPath>
</defs>
</svg>
