<svg width="17" height="16" viewBox="0 0 17 16" fill="none" xmlns="http://www.w3.org/2000/svg">
<path d="M7.97648 7.03704H13.7707C13.9902 7.03704 14.2008 6.95119 14.356 6.79839C14.5113 6.64558 14.5985 6.43833 14.5985 6.22222V2.96297C14.5985 2.74686 14.5113 2.53961 14.356 2.3868C14.2008 2.234 13.9902 2.14815 13.7707 2.14815H10.8736L10.0458 1.33334H7.97648C7.75695 1.33334 7.54641 1.41918 7.39117 1.57199C7.23594 1.7248 7.14873 1.93205 7.14873 2.14815V3.77778H2.18224V1.53704C2.18224 1.48301 2.16044 1.4312 2.12163 1.393C2.08282 1.3548 2.03019 1.33334 1.9753 1.33334H1.56143C1.50655 1.33334 1.45391 1.3548 1.4151 1.393C1.37629 1.4312 1.35449 1.48301 1.35449 1.53704V11.5185C1.35449 11.6266 1.3981 11.7302 1.47571 11.8066C1.55333 11.883 1.6586 11.9259 1.76837 11.9259H7.14873V13.5556C7.14873 13.7717 7.23594 13.9789 7.39117 14.1317C7.54641 14.2845 7.75695 14.3704 7.97648 14.3704H13.7707C13.9902 14.3704 14.2008 14.2845 14.356 14.1317C14.5113 13.9789 14.5985 13.7717 14.5985 13.5556V10.2963C14.5985 10.0802 14.5113 9.87294 14.356 9.72014C14.2008 9.56733 13.9902 9.48148 13.7707 9.48148H10.8736L10.0458 8.66667H7.97648C7.75695 8.66667 7.54641 8.75252 7.39117 8.90532C7.23594 9.05813 7.14873 9.26538 7.14873 9.48148V11.1111H2.18224V4.5926H7.14873V6.22222C7.14873 6.43833 7.23594 6.64558 7.39117 6.79839C7.54641 6.95119 7.75695 7.03704 7.97648 7.03704ZM7.97648 9.48148H9.70285L10.5306 10.2963H13.7707V13.5556H7.97648V9.48148ZM7.97648 2.14815H9.70285L10.5306 2.96297H13.7707V6.22222H7.97648V2.14815Z" fill="white"/>
</svg>
