<svg width="264" height="128" viewBox="0 0 264 128" fill="none" xmlns="http://www.w3.org/2000/svg">
<g clip-path="url(#clip0_1_9056)">
<path d="M197.92 84.7254H78.2644C77.4476 84.7245 76.6645 84.3996 76.087 83.822C75.5094 83.2445 75.1845 82.4614 75.1836 81.6446V7.86281C75.1843 7.26441 75.4223 6.69071 75.8454 6.26757C76.2685 5.84443 76.8422 5.6064 77.4406 5.60571H198.704C199.313 5.60641 199.897 5.84854 200.327 6.279C200.758 6.70946 201 7.29308 201 7.90184V81.6446C201 82.4614 200.675 83.2445 200.097 83.822C199.52 84.3996 198.736 84.7245 197.92 84.7254Z" fill="#F2F2F2"/>
<path d="M193.556 80.362H82.0408C80.4061 80.362 79.0762 79.1166 79.0762 77.5859V13.3358C79.0762 12.2005 80.0617 11.2769 81.273 11.2769H194.288C195.519 11.2769 196.521 12.2157 196.521 13.3697V77.5859C196.521 79.1166 195.191 80.362 193.556 80.362Z" fill="white"/>
<path d="M200.958 7.6862H75.1406V6.11771C75.1418 5.29819 75.468 4.5126 76.0477 3.9333C76.6274 3.35399 77.4131 3.02826 78.2327 3.02759H197.866C198.685 3.02826 199.471 3.35398 200.051 3.93329C200.63 4.5126 200.957 5.29819 200.958 6.11771V7.6862Z" fill="#CCCCCC"/>
<path d="M80.7607 6.16109C81.2024 6.16109 81.5605 5.80302 81.5605 5.36131C81.5605 4.9196 81.2024 4.56152 80.7607 4.56152C80.319 4.56152 79.9609 4.9196 79.9609 5.36131C79.9609 5.80302 80.319 6.16109 80.7607 6.16109Z" fill="white"/>
<path d="M83.7959 6.16109C84.2376 6.16109 84.5957 5.80302 84.5957 5.36131C84.5957 4.9196 84.2376 4.56152 83.7959 4.56152C83.3542 4.56152 82.9961 4.9196 82.9961 5.36131C82.9961 5.80302 83.3542 6.16109 83.7959 6.16109Z" fill="white"/>
<path d="M86.831 6.16109C87.2727 6.16109 87.6308 5.80302 87.6308 5.36131C87.6308 4.9196 87.2727 4.56152 86.831 4.56152C86.3893 4.56152 86.0312 4.9196 86.0312 5.36131C86.0312 5.80302 86.3893 6.16109 86.831 6.16109Z" fill="white"/>
<path d="M181.281 69.5859H94.8613C93.995 69.5849 93.1645 69.2403 92.5519 68.6278C91.9393 68.0152 91.5947 67.1847 91.5938 66.3183V24.6518C91.5945 24.0039 91.8522 23.3828 92.3103 22.9246C92.7684 22.4665 93.3896 22.2088 94.0375 22.208H182.066C182.724 22.2088 183.355 22.4706 183.82 22.9361C184.286 23.4015 184.548 24.0326 184.548 24.6908V66.3183C184.547 67.1847 184.203 68.0152 183.59 68.6278C182.978 69.2403 182.147 69.5849 181.281 69.5859ZM94.0375 22.5814C93.4886 22.5821 92.9623 22.8004 92.5742 23.1885C92.1861 23.5767 91.9678 24.1029 91.9672 24.6518V66.3183C91.968 67.0856 92.2732 67.8213 92.8158 68.3638C93.3584 68.9064 94.094 69.2116 94.8613 69.2125H181.281C182.048 69.2116 182.784 68.9064 183.326 68.3638C183.869 67.8213 184.174 67.0856 184.175 66.3183V24.6908C184.174 24.1316 183.952 23.5954 183.557 23.2C183.161 22.8045 182.625 22.5821 182.066 22.5814H94.0375Z" fill="#CCCCCC"/>
<path d="M97.8488 66.319H178.294C179.086 66.319 179.846 66.0042 180.406 65.444C180.966 64.8837 181.281 64.1238 181.281 63.3315V28.4999C181.281 27.7076 180.966 26.9477 180.406 26.3875C179.846 25.8272 179.086 25.5125 178.294 25.5125H97.8488C97.0565 25.5125 96.2966 25.8272 95.7363 26.3875C95.1761 26.9477 94.8613 27.7076 94.8613 28.4999V63.3315C94.8613 64.1238 95.1761 64.8837 95.7363 65.444C96.2966 66.0042 97.0565 66.319 97.8488 66.319Z" fill="#F2F2F2"/>
<path d="M106.981 35.6461C107.909 35.6461 108.662 34.8937 108.662 33.9656C108.662 33.0375 107.909 32.2852 106.981 32.2852C106.053 32.2852 105.301 33.0375 105.301 33.9656C105.301 34.8937 106.053 35.6461 106.981 35.6461Z" fill="#CCCCCC"/>
<path d="M106.981 41.9942C107.909 41.9942 108.662 41.2418 108.662 40.3138C108.662 39.3857 107.909 38.6333 106.981 38.6333C106.053 38.6333 105.301 39.3857 105.301 40.3138C105.301 41.2418 106.053 41.9942 106.981 41.9942Z" fill="#CCCCCC"/>
<path d="M106.981 48.3428C107.909 48.3428 108.662 47.5905 108.662 46.6624C108.662 45.7343 107.909 44.9819 106.981 44.9819C106.053 44.9819 105.301 45.7343 105.301 46.6624C105.301 47.5905 106.053 48.3428 106.981 48.3428Z" fill="#CCCCCC"/>
<path d="M106.981 54.6912C107.909 54.6912 108.662 53.9389 108.662 53.0108C108.662 52.0827 107.909 51.3303 106.981 51.3303C106.053 51.3303 105.301 52.0827 105.301 53.0108C105.301 53.9389 106.053 54.6912 106.981 54.6912Z" fill="#CCCCCC"/>
<path d="M170.653 34.1522H115.385C115.335 34.1522 115.288 34.1326 115.253 34.0976C115.218 34.0625 115.198 34.015 115.198 33.9655C115.198 33.916 115.218 33.8685 115.253 33.8335C115.288 33.7985 115.335 33.7788 115.385 33.7788H170.653C170.703 33.7788 170.75 33.7985 170.785 33.8335C170.82 33.8685 170.84 33.916 170.84 33.9655C170.84 34.015 170.82 34.0625 170.785 34.0976C170.75 34.1326 170.703 34.1522 170.653 34.1522Z" fill="#CCCCCC"/>
<path d="M170.653 40.5009H115.385C115.335 40.5009 115.288 40.4812 115.253 40.4462C115.218 40.4112 115.198 40.3637 115.198 40.3142C115.198 40.2646 115.218 40.2171 115.253 40.1821C115.288 40.1471 115.335 40.1274 115.385 40.1274H170.653C170.703 40.1274 170.75 40.1471 170.785 40.1821C170.82 40.2171 170.84 40.2646 170.84 40.3142C170.84 40.3637 170.82 40.4112 170.785 40.4462C170.75 40.4812 170.703 40.5009 170.653 40.5009Z" fill="#CCCCCC"/>
<path d="M170.653 46.8485H115.385C115.335 46.8485 115.288 46.8289 115.253 46.7938C115.218 46.7588 115.198 46.7113 115.198 46.6618C115.198 46.6123 115.218 46.5648 115.253 46.5298C115.288 46.4948 115.335 46.4751 115.385 46.4751H170.653C170.703 46.4751 170.75 46.4948 170.785 46.5298C170.82 46.5648 170.84 46.6123 170.84 46.6618C170.84 46.7113 170.82 46.7588 170.785 46.7938C170.75 46.8289 170.703 46.8485 170.653 46.8485Z" fill="#CCCCCC"/>
<path d="M170.653 53.1972H115.385C115.335 53.1972 115.288 53.1775 115.253 53.1425C115.218 53.1075 115.198 53.06 115.198 53.0104C115.198 52.9609 115.218 52.9134 115.253 52.8784C115.288 52.8434 115.335 52.8237 115.385 52.8237H170.653C170.703 52.8237 170.75 52.8434 170.785 52.8784C170.82 52.9134 170.84 52.9609 170.84 53.0104C170.84 53.06 170.82 53.1075 170.785 53.1425C170.75 53.1775 170.703 53.1972 170.653 53.1972Z" fill="#CCCCCC"/>
<path d="M125.841 59.5457H120.426C120.178 59.5454 119.941 59.447 119.766 59.272C119.591 59.0969 119.492 58.8597 119.492 58.6121V53.5708C119.492 53.3233 119.591 53.086 119.766 52.911C119.941 52.7359 120.178 52.6375 120.426 52.6372H125.841C126.088 52.6375 126.325 52.7359 126.5 52.911C126.675 53.086 126.774 53.3233 126.774 53.5708V58.6121C126.774 58.8597 126.675 59.0969 126.5 59.272C126.325 59.447 126.088 59.5454 125.841 59.5457Z" fill="#27147A"/>
<path d="M137.976 59.5457H132.562C132.314 59.5454 132.077 59.447 131.902 59.2719C131.727 59.0969 131.628 58.8596 131.628 58.6121V47.2224C131.628 46.9749 131.727 46.7376 131.902 46.5626C132.077 46.3876 132.314 46.2891 132.562 46.2888H137.976C138.224 46.2891 138.461 46.3876 138.636 46.5626C138.811 46.7376 138.91 46.9749 138.91 47.2224V58.6121C138.91 58.8596 138.811 59.0969 138.636 59.2719C138.461 59.447 138.224 59.5454 137.976 59.5457Z" fill="#27147A"/>
<path d="M150.301 59.5457H144.886C144.638 59.5454 144.401 59.4469 144.226 59.2719C144.051 59.0969 143.952 58.8596 143.952 58.6121V40.874C143.952 40.6265 144.051 40.3892 144.226 40.2142C144.401 40.0392 144.638 39.9407 144.886 39.9404H150.301C150.548 39.9407 150.785 40.0392 150.96 40.2142C151.135 40.3892 151.234 40.6265 151.234 40.874V58.6121C151.234 58.8596 151.135 59.0969 150.96 59.2719C150.785 59.4469 150.548 59.5454 150.301 59.5457Z" fill="#27147A"/>
<path d="M162.997 59.5457H157.582C157.335 59.5454 157.097 59.447 156.922 59.2719C156.747 59.0969 156.649 58.8596 156.648 58.6121V34.7124C156.649 34.4649 156.747 34.2276 156.922 34.0526C157.097 33.8775 157.335 33.7791 157.582 33.7788H162.997C163.244 33.7791 163.482 33.8775 163.657 34.0526C163.832 34.2276 163.93 34.4649 163.93 34.7124V58.6121C163.93 58.8596 163.832 59.0969 163.657 59.2719C163.482 59.447 163.244 59.5454 162.997 59.5457Z" fill="#27147A"/>
<path d="M170.653 59.5456H115.385C115.335 59.5456 115.288 59.5259 115.253 59.4909C115.218 59.4559 115.198 59.4084 115.198 59.3588C115.198 59.3093 115.218 59.2618 115.253 59.2268C115.288 59.1918 115.335 59.1721 115.385 59.1721H170.653C170.703 59.1721 170.75 59.1918 170.785 59.2268C170.82 59.2618 170.84 59.3093 170.84 59.3588C170.84 59.4084 170.82 59.4559 170.785 59.4909C170.75 59.5259 170.703 59.5456 170.653 59.5456Z" fill="#4A4A4A"/>
<path d="M201.136 88.1027C201.294 87.8644 201.501 87.6635 201.745 87.5141C201.988 87.3648 202.262 87.2707 202.545 87.2384C202.829 87.2061 203.117 87.2364 203.388 87.3272C203.658 87.418 203.906 87.5671 204.113 87.764L210.283 84.5796L209.899 88.1673L204.099 90.6412C203.745 90.967 203.284 91.1517 202.803 91.1603C202.323 91.1689 201.855 91.0009 201.49 90.688C201.125 90.3751 200.887 89.9391 200.822 89.4626C200.757 88.9861 200.868 88.5023 201.136 88.1027Z" fill="#FFB8B8"/>
<path d="M207.779 89.4409C207.638 89.3311 207.535 89.1812 207.482 89.0112L206.992 87.4258C206.939 87.254 206.94 87.0702 206.995 86.8992C207.051 86.7282 207.157 86.5782 207.3 86.4696L212.301 82.6922L217.717 72.6443C217.944 72.3521 218.226 72.1074 218.548 71.9243C218.869 71.7412 219.223 71.6232 219.59 71.577C219.958 71.5308 220.33 71.5573 220.687 71.6551C221.044 71.7529 221.378 71.92 221.67 72.1469C221.962 72.3738 222.207 72.656 222.39 72.9774C222.573 73.2988 222.691 73.6531 222.737 74.0201C222.783 74.3872 222.756 74.7597 222.659 75.1164C222.561 75.4732 222.394 75.8072 222.167 76.0993L219.085 82.6028C218.151 84.5768 216.53 86.144 214.527 87.0128L208.666 89.5549C208.553 89.6037 208.431 89.6282 208.308 89.6269C208.186 89.6256 208.064 89.5985 207.953 89.5472C207.891 89.5188 207.832 89.4831 207.779 89.4409Z" fill="#29B1B3"/>
<path d="M222.304 68.4509C224.939 68.4509 227.076 66.3143 227.076 63.6786C227.076 61.0429 224.939 58.9062 222.304 58.9062C219.668 58.9062 217.531 61.0429 217.531 63.6786C217.531 66.3143 219.668 68.4509 222.304 68.4509Z" fill="#FFB8B8"/>
<path d="M220.367 126.283L217.985 126.283L216.852 117.094L220.368 117.094L220.367 126.283Z" fill="#FFB8B8"/>
<path d="M216.283 125.602H220.877V128.494H213.391C213.391 128.115 213.465 127.738 213.611 127.387C213.756 127.036 213.969 126.718 214.238 126.449C214.506 126.18 214.825 125.967 215.176 125.822C215.527 125.677 215.903 125.602 216.283 125.602Z" fill="#2F2E41"/>
<path d="M228.139 126.283L225.757 126.283L224.624 117.094L228.14 117.095L228.139 126.283Z" fill="#FFB8B8"/>
<path d="M224.057 125.602H228.651V128.494H221.164C221.164 128.115 221.239 127.738 221.384 127.387C221.53 127.037 221.743 126.718 222.011 126.449C222.28 126.18 222.599 125.967 222.95 125.822C223.301 125.677 223.677 125.602 224.057 125.602Z" fill="#2F2E41"/>
<path d="M228.313 123.951L225.522 123.951C225.33 123.951 225.143 123.887 224.99 123.77C224.838 123.653 224.728 123.489 224.678 123.304L220.659 108.401C220.653 108.377 220.639 108.357 220.618 108.344C220.598 108.331 220.574 108.326 220.55 108.33C220.526 108.334 220.505 108.346 220.49 108.365C220.475 108.384 220.467 108.408 220.469 108.432L221.28 122.566C221.288 122.691 221.268 122.816 221.222 122.933C221.177 123.049 221.107 123.155 221.018 123.242C220.928 123.33 220.821 123.397 220.703 123.439C220.585 123.481 220.459 123.498 220.335 123.487L217.197 123.226C216.996 123.208 216.807 123.122 216.662 122.982C216.517 122.842 216.425 122.656 216.401 122.455L213.543 92.7763L214.649 93.4399L225.011 91.6807L229.18 122.961C229.197 123.085 229.186 123.21 229.15 123.329C229.114 123.449 229.053 123.559 228.971 123.653C228.889 123.746 228.788 123.821 228.675 123.873C228.561 123.924 228.438 123.951 228.313 123.951H228.313Z" fill="#2F2E41"/>
<path d="M217.009 95.9093C215.866 95.9001 214.746 95.5849 213.766 94.9964C213.615 94.907 213.494 94.774 213.42 94.6148C213.346 94.4557 213.322 94.2779 213.351 94.1048C213.715 91.8729 215.621 80.4242 217.355 74.1828C218.061 71.6407 219.623 70.2716 221.996 70.1134C225.468 69.8857 228.554 72.6019 228.875 76.1757C229.442 82.4806 227.14 91.4384 226.123 94.9972C226.084 95.1346 226.011 95.2603 225.912 95.3632C225.813 95.466 225.69 95.543 225.554 95.5872C225.418 95.6314 225.273 95.6416 225.132 95.6169C224.991 95.5922 224.859 95.5332 224.746 95.4453L222.674 93.8338C222.547 93.7364 222.389 93.6867 222.229 93.6934C222.069 93.7001 221.916 93.7627 221.797 93.8704C220.051 95.4278 218.392 95.9093 217.009 95.9093Z" fill="#29B1B3"/>
<path opacity="0.2" d="M222.527 79.2607L224.275 86.6445L221.749 92.8621L223.498 86.8388L222.527 79.2607Z" fill="black"/>
<path d="M225.027 67.603C225.452 67.6109 225.873 67.5346 226.268 67.3785C226.442 67.3115 226.622 67.2565 226.796 67.1895C228.327 66.5979 229.336 64.967 229.372 63.3256C229.409 61.6842 228.559 60.0911 227.297 59.0411C226.034 57.9911 224.4 57.452 222.763 57.3273C220.999 57.193 219.014 57.6401 218.028 59.1086C217.766 59.4994 217.582 59.9737 217.738 60.4457C217.784 60.5881 217.867 60.7158 217.979 60.816C218.419 61.2075 218.858 60.9132 219.306 60.8872C219.923 60.8515 220.477 61.3506 220.676 61.9353C220.875 62.5199 220.787 63.1636 220.626 63.7599C220.504 64.1187 220.427 64.4914 220.396 64.8694C220.383 65.0589 220.419 65.2486 220.5 65.4205C220.581 65.5924 220.704 65.7407 220.858 65.8516C221.244 66.0845 221.75 65.9497 222.135 65.7172C222.521 65.4847 222.854 65.1614 223.27 64.9904C223.687 64.8193 224.246 64.8573 224.489 65.2366C224.566 65.3747 224.618 65.5252 224.643 65.6813C224.86 66.6713 224.81 66.613 225.027 67.603Z" fill="#2F2E41"/>
<path d="M217.629 119.617L187.745 109.21C187.233 109.03 186.812 108.655 186.576 108.166C186.339 107.677 186.306 107.114 186.484 106.601L194.25 84.3028C194.381 83.9271 194.656 83.6189 195.014 83.4457C195.373 83.2725 195.785 83.2485 196.161 83.3789L227.055 94.1379C227.437 94.2714 227.75 94.5512 227.927 94.9156C228.103 95.2801 228.127 95.6996 227.994 96.0821L220.237 118.356C220.058 118.868 219.683 119.289 219.194 119.526C218.705 119.762 218.142 119.795 217.629 119.617Z" fill="#E6E6E6"/>
<path d="M190.295 107.929L216.426 117.029C216.924 117.202 217.47 117.171 217.944 116.941C218.419 116.712 218.782 116.304 218.956 115.806L225.226 97.8005C225.4 97.3029 225.368 96.7568 225.139 96.2824C224.91 95.8081 224.501 95.4442 224.004 95.2709L197.873 86.1706C197.375 85.9973 196.829 86.0288 196.355 86.2581C195.88 86.4874 195.516 86.8958 195.343 87.3934L189.072 105.399C188.987 105.645 188.95 105.906 188.965 106.167C188.98 106.427 189.046 106.682 189.16 106.917C189.273 107.152 189.432 107.362 189.627 107.536C189.822 107.709 190.049 107.843 190.295 107.929Z" fill="white"/>
<path d="M196.859 95.278L195.565 94.8273C195.495 94.8028 195.437 94.7515 195.405 94.6846C195.373 94.6176 195.368 94.5407 195.392 94.4704L195.843 93.1763C195.868 93.1062 195.919 93.0486 195.986 93.0163C196.053 92.9839 196.13 92.9794 196.2 93.0038L197.494 93.4545C197.564 93.479 197.622 93.5304 197.654 93.5973C197.687 93.6642 197.691 93.7412 197.667 93.8114L197.216 95.1055C197.191 95.1757 197.14 95.2332 197.073 95.2656C197.006 95.2979 196.929 95.3024 196.859 95.278Z" fill="#FF9505"/>
<path d="M195.689 98.6308L194.395 98.1801C194.325 98.1556 194.267 98.1042 194.235 98.0373C194.203 97.9704 194.198 97.8934 194.223 97.8232L194.673 96.5291C194.698 96.4589 194.749 96.4014 194.816 96.369C194.883 96.3367 194.96 96.3322 195.03 96.3566L196.324 96.8073C196.394 96.8318 196.452 96.8831 196.484 96.95C196.517 97.0169 196.521 97.094 196.497 97.1642L196.046 98.4583C196.022 98.5284 195.97 98.586 195.903 98.6183C195.836 98.6507 195.759 98.6552 195.689 98.6308Z" fill="#4A4A4A"/>
<path d="M194.523 101.984L193.229 101.533C193.159 101.508 193.101 101.457 193.069 101.39C193.037 101.323 193.032 101.246 193.057 101.176L193.507 99.8819C193.532 99.8117 193.583 99.7542 193.65 99.7218C193.717 99.6895 193.794 99.685 193.864 99.7094L195.158 100.16C195.228 100.185 195.286 100.236 195.318 100.303C195.351 100.37 195.355 100.447 195.331 100.517L194.88 101.811C194.856 101.881 194.804 101.939 194.737 101.971C194.67 102.003 194.593 102.008 194.523 101.984Z" fill="#CCCCCC"/>
<path d="M205.553 97.5805L199.318 95.409C199.283 95.397 199.251 95.3782 199.223 95.3537C199.196 95.3293 199.173 95.2996 199.157 95.2664C199.141 95.2332 199.132 95.1972 199.129 95.1604C199.127 95.1236 199.132 95.0867 199.145 95.0519C199.157 95.0171 199.176 94.985 199.2 94.9575C199.225 94.93 199.254 94.9076 199.288 94.8916C199.321 94.8755 199.357 94.8663 199.394 94.8642C199.43 94.8622 199.467 94.8674 199.502 94.8796L205.737 97.0511C205.772 97.0632 205.804 97.0819 205.832 97.1064C205.86 97.1309 205.882 97.1606 205.898 97.1937C205.914 97.2269 205.924 97.2629 205.926 97.2997C205.928 97.3366 205.923 97.3734 205.911 97.4083C205.898 97.4431 205.88 97.4752 205.855 97.5027C205.831 97.5302 205.801 97.5526 205.768 97.5686C205.734 97.5846 205.698 97.5939 205.661 97.5959C205.625 97.598 205.588 97.5928 205.553 97.5805Z" fill="#CCCCCC"/>
<path d="M204.385 100.934L198.15 98.7621C198.08 98.7376 198.022 98.6863 197.99 98.6193C197.957 98.5524 197.953 98.4754 197.978 98.4052C198.002 98.3349 198.053 98.2773 198.12 98.245C198.187 98.2126 198.264 98.2082 198.334 98.2326L204.57 100.404C204.605 100.416 204.637 100.435 204.664 100.459C204.692 100.484 204.714 100.514 204.73 100.547C204.746 100.58 204.756 100.616 204.758 100.653C204.76 100.69 204.755 100.726 204.743 100.761C204.731 100.796 204.712 100.828 204.687 100.856C204.663 100.883 204.633 100.906 204.6 100.922C204.567 100.938 204.531 100.947 204.494 100.949C204.457 100.951 204.42 100.946 204.385 100.934Z" fill="#CCCCCC"/>
<path d="M203.217 104.286L196.982 102.115C196.912 102.09 196.854 102.039 196.822 101.972C196.79 101.905 196.785 101.828 196.81 101.758C196.834 101.688 196.885 101.63 196.952 101.598C197.019 101.565 197.096 101.561 197.166 101.585L203.402 103.757C203.472 103.781 203.53 103.833 203.562 103.9C203.594 103.967 203.599 104.044 203.574 104.114C203.55 104.184 203.498 104.242 203.432 104.274C203.365 104.306 203.288 104.311 203.217 104.286Z" fill="#CCCCCC"/>
<path d="M219.814 106.103C219.859 105.994 219.902 105.884 219.941 105.771C220.454 104.299 220.361 102.684 219.682 101.281C219.004 99.8784 217.796 98.8023 216.325 98.2898L214.275 104.175L219.814 106.103Z" fill="#FF9505"/>
<path d="M213.678 104.533L215.727 98.6477C214.644 98.2705 213.474 98.2185 212.362 98.4981C211.25 98.7778 210.243 99.3769 209.468 100.221C208.692 101.066 208.18 102.119 207.995 103.251C207.811 104.383 207.962 105.544 208.429 106.592C208.897 107.639 209.661 108.527 210.627 109.145C211.593 109.763 212.719 110.085 213.865 110.071C215.012 110.058 216.13 109.708 217.081 109.067C218.031 108.425 218.774 107.52 219.216 106.461L213.678 104.533Z" fill="#4A4A4A"/>
<path d="M221.015 96.0909C220.992 95.8062 221.032 95.5199 221.131 95.2521C221.23 94.9843 221.387 94.7416 221.591 94.541C221.794 94.3405 222.039 94.1869 222.308 94.0913C222.577 93.9956 222.864 93.9601 223.149 93.9873L226.039 87.6738L227.951 90.7337L224.913 96.2599C224.836 96.7346 224.587 97.1644 224.214 97.4679C223.841 97.7715 223.37 97.9276 222.889 97.9067C222.409 97.8859 221.952 97.6896 221.607 97.3549C221.262 97.0202 221.051 96.5705 221.015 96.0909Z" fill="#FFB8B8"/>
<path d="M226.018 93.8675C225.84 93.8675 225.666 93.8133 225.52 93.712L224.155 92.7674C224.008 92.6648 223.895 92.5193 223.833 92.3507C223.771 92.1821 223.762 91.9985 223.808 91.8247L225.412 85.7662L223.473 74.5173C223.47 74.1471 223.541 73.7802 223.681 73.4374C223.821 73.0945 224.027 72.7826 224.287 72.5195C224.547 72.2563 224.857 72.047 225.198 71.9036C225.539 71.7602 225.906 71.6854 226.276 71.6836C226.646 71.6818 227.013 71.753 227.355 71.8931C227.698 72.0332 228.01 72.2395 228.273 72.5002C228.536 72.7608 228.744 73.0707 228.887 73.4122C229.03 73.7536 229.105 74.1199 229.106 74.4901L230.695 81.509C231.177 83.6393 230.87 85.8722 229.829 87.7926L226.786 93.4096C226.728 93.5176 226.647 93.612 226.55 93.6868C226.452 93.7616 226.34 93.815 226.221 93.8436C226.154 93.8595 226.086 93.8675 226.018 93.8675Z" fill="#29B1B3"/>
<path d="M114.982 126.186L117.364 126.186L118.497 116.998H114.981L114.982 126.186Z" fill="#A0616A"/>
<path d="M114.374 125.408L119.065 125.408H119.065C119.458 125.408 119.847 125.485 120.21 125.635C120.572 125.785 120.902 126.006 121.179 126.283C121.457 126.561 121.677 126.891 121.828 127.253C121.978 127.616 122.055 128.005 122.055 128.397V128.494L114.374 128.495L114.374 125.408Z" fill="#2F2E41"/>
<path d="M105.46 126.186L107.843 126.186L108.976 116.998H105.46L105.46 126.186Z" fill="#A0616A"/>
<path d="M104.853 125.408L109.544 125.408H109.544C109.937 125.408 110.325 125.485 110.688 125.635C111.051 125.785 111.38 126.006 111.658 126.283C111.936 126.561 112.156 126.891 112.306 127.253C112.456 127.616 112.534 128.005 112.534 128.397V128.494L104.853 128.495L104.853 125.408Z" fill="#2F2E41"/>
<path d="M115.456 62.5742C118.092 62.5742 120.228 60.4376 120.228 57.8019C120.228 55.1662 118.092 53.0295 115.456 53.0295C112.82 53.0295 110.684 55.1662 110.684 57.8019C110.684 60.4376 112.82 62.5742 115.456 62.5742Z" fill="#A0616A"/>
<path d="M118.665 124.203H114.245C114.129 124.203 114.015 124.18 113.908 124.135C113.801 124.091 113.704 124.025 113.623 123.943C113.542 123.861 113.477 123.763 113.434 123.656C113.391 123.548 113.369 123.434 113.371 123.318L113.627 102.327C113.628 102.252 113.601 102.18 113.55 102.125C113.5 102.071 113.43 102.037 113.355 102.032C113.281 102.027 113.208 102.051 113.15 102.099C113.093 102.146 113.056 102.214 113.047 102.288L110.474 123.434C110.448 123.646 110.345 123.841 110.186 123.983C110.026 124.124 109.82 124.203 109.606 124.203H105.143C105.022 124.203 104.903 124.178 104.793 124.13C104.682 124.081 104.583 124.011 104.501 123.922C104.419 123.834 104.356 123.729 104.317 123.615C104.277 123.501 104.262 123.381 104.271 123.26L107.218 85.5506L107.298 85.5419L121.411 84.0178L119.539 123.37C119.528 123.595 119.432 123.806 119.269 123.962C119.106 124.117 118.89 124.203 118.665 124.203Z" fill="#2F2E41"/>
<path d="M107.391 87.8655C107.164 87.865 106.947 87.7763 106.784 87.6183C106.621 87.4603 106.527 87.2452 106.52 87.0186C106.443 84.6342 106.311 76.3838 107.845 70.3268C108.264 68.6722 109.204 67.1962 110.527 66.1171C111.849 65.038 113.484 64.4131 115.189 64.3347C116.867 64.243 118.531 64.6822 119.946 65.5898C121.36 66.4974 122.453 67.8274 123.069 69.3911C125.649 75.9398 128.086 84.0118 125.048 85.2778C121.065 86.937 110.567 87.6767 107.445 87.8638C107.427 87.8649 107.409 87.8655 107.391 87.8655Z" fill="#FF9505"/>
<path d="M125.631 52.9783C125.706 53.0553 125.787 53.1263 125.873 53.1907L125.372 62.8138L123.288 63.8807L124.487 67.2359L128.36 65.7057C128.672 65.5821 128.937 65.3604 129.113 65.0738C129.289 64.7872 129.367 64.4512 129.336 64.1162L128.322 53.2003C128.654 52.9526 128.902 52.6097 129.035 52.2172C129.167 51.8248 129.177 51.4013 129.062 51.0031C128.948 50.605 128.716 50.2511 128.395 49.9884C128.075 49.7258 127.682 49.5668 127.27 49.5328C126.857 49.4987 126.443 49.5911 126.084 49.7978C125.725 50.0044 125.438 50.3154 125.26 50.6894C125.082 51.0634 125.022 51.4828 125.088 51.8916C125.155 52.3005 125.344 52.6795 125.631 52.9783Z" fill="#A0616A"/>
<path d="M125.411 63.1723L126.877 67.3379C126.919 67.4565 126.935 67.5826 126.923 67.7077C126.912 67.8328 126.874 67.954 126.811 68.063C126.749 68.1721 126.663 68.2663 126.561 68.3394C126.459 68.4125 126.342 68.4627 126.219 68.4866L121.896 69.3236C121.289 69.5336 120.623 69.4941 120.044 69.2137C119.466 68.9333 119.022 68.435 118.81 67.8279C118.599 67.2208 118.636 66.5546 118.915 65.9753C119.194 65.396 119.691 64.9509 120.298 64.7377L124.179 62.6891C124.29 62.6305 124.412 62.5965 124.538 62.5895C124.663 62.5825 124.789 62.6026 124.906 62.6484C125.023 62.6943 125.128 62.7648 125.216 62.8552C125.303 62.9456 125.37 63.0537 125.411 63.1723V63.1723Z" fill="#FF9505"/>
<path d="M104.96 52.9783C104.885 53.0553 104.804 53.1263 104.718 53.1907L105.219 62.8138L107.303 63.8807L106.104 67.2359L102.231 65.7057C101.918 65.5821 101.654 65.3604 101.478 65.0738C101.302 64.7872 101.224 64.4512 101.255 64.1162L102.269 53.2003C101.937 52.9526 101.689 52.6097 101.556 52.2172C101.424 51.8248 101.414 51.4013 101.528 51.0031C101.643 50.605 101.875 50.2511 102.196 49.9884C102.516 49.7258 102.908 49.5668 103.321 49.5328C103.734 49.4987 104.147 49.5911 104.506 49.7978C104.865 50.0044 105.153 50.3154 105.331 50.6894C105.509 51.0634 105.569 51.4828 105.502 51.8916C105.436 52.3005 105.247 52.6795 104.96 52.9783H104.96Z" fill="#A0616A"/>
<path d="M105.684 62.6485C105.801 62.6026 105.927 62.5825 106.052 62.5895C106.178 62.5965 106.3 62.6305 106.411 62.6892L110.292 64.7378C110.899 64.951 111.396 65.3961 111.675 65.9754C111.954 66.5546 111.991 67.2209 111.78 67.828C111.568 68.435 111.124 68.9334 110.546 69.2138C109.967 69.4942 109.301 69.5337 108.694 69.3237L104.371 68.4867C104.248 68.4628 104.131 68.4126 104.029 68.3395C103.927 68.2664 103.841 68.1721 103.779 68.0631C103.716 67.9541 103.678 67.8329 103.667 67.7078C103.655 67.5827 103.671 67.4566 103.713 67.338L105.179 63.1723C105.22 63.0538 105.287 62.9456 105.374 62.8552C105.462 62.7648 105.567 62.6943 105.684 62.6485Z" fill="#FF9505"/>
<path d="M117.31 58.6153C117.285 58.0066 117.437 57.4037 117.749 56.8803C118.061 56.3569 118.519 55.9357 119.066 55.6682C120.517 54.9193 121.428 53.3219 121.029 51.8633C120.518 49.9962 117.977 48.7854 115.918 49.4277C115.361 49.6255 114.823 49.8753 114.313 50.1737L112.967 50.8948C112.393 51.1825 111.839 51.5095 111.309 51.8737C110.516 52.4581 109.894 53.2448 109.509 54.1516C109.124 55.0584 108.989 56.052 109.119 57.0286C109.384 58.9267 110.627 60.6674 112.329 61.8592C112.98 62.3455 113.731 62.6796 114.528 62.8367C115.344 62.9712 116.252 62.8184 116.848 62.3112C117.78 61.5186 117.684 60.1912 117.382 59.0826C117.342 58.9296 117.318 58.7731 117.31 58.6153Z" fill="#2F2E41"/>
<path d="M85.2773 93.1568L54.8147 105.654C54.2915 105.868 53.7049 105.866 53.1834 105.647C52.662 105.429 52.2483 105.013 52.0332 104.491L42.7081 81.7603C42.5514 81.3771 42.5531 80.9473 42.7128 80.5652C42.8726 80.1832 43.1774 79.8802 43.5603 79.7226L75.0527 66.8029C75.4426 66.6435 75.8798 66.6452 76.2684 66.8077C76.6571 66.9703 76.9653 67.2803 77.1257 67.6699L86.4405 90.3752C86.6544 90.8984 86.6521 91.4851 86.434 92.0065C86.216 92.528 85.8 92.9416 85.2773 93.1568Z" fill="#E6E6E6"/>
<path d="M55.9189 102.897L82.5563 91.969C83.0636 91.7609 83.4674 91.3598 83.6789 90.854C83.8904 90.3482 83.8924 89.779 83.6843 89.2718L76.1544 70.9172C76.0513 70.666 75.8998 70.4376 75.7085 70.245C75.5172 70.0524 75.2898 69.8993 75.0394 69.7946C74.7889 69.6898 74.5203 69.6355 74.2488 69.6345C73.9773 69.6336 73.7083 69.6862 73.4571 69.7892L46.8198 80.7171C46.5686 80.8201 46.3402 80.9717 46.1476 81.163C45.955 81.3543 45.8019 81.5816 45.6972 81.8321C45.5924 82.0826 45.538 82.3512 45.5371 82.6227C45.5362 82.8942 45.5888 83.1632 45.6918 83.4143L53.2217 101.769C53.3248 102.02 53.4763 102.249 53.6676 102.441C53.8589 102.634 54.0863 102.787 54.3367 102.892C54.5872 102.996 54.8558 103.051 55.1273 103.052C55.3988 103.052 55.6678 103 55.9189 102.897Z" fill="white"/>
<path d="M84.0069 75.9228L83.6152 76.0835L83.642 76.1488L84.0336 75.9881L84.0069 75.9228Z" fill="#E6E6E6"/>
<path d="M74.8497 76.4732L74.0585 76.7978L74.0317 76.7325L74.8229 76.408L74.8497 76.4732ZM73.2674 77.1224L72.4762 77.4469L72.4494 77.3817L73.2406 77.0571L73.2674 77.1224ZM71.685 77.7715L70.8939 78.0961L70.8671 78.0308L71.6583 77.7062L71.685 77.7715ZM70.1027 78.4207L69.3116 78.7452L69.2848 78.68L70.0759 78.3554L70.1027 78.4207ZM68.5204 79.0698L67.7292 79.3944L67.7025 79.3291L68.4936 79.0045L68.5204 79.0698ZM66.9381 79.719L66.1469 80.0435L66.1201 79.9783L66.9113 79.6537L66.9381 79.719ZM65.3557 80.3681L64.5646 80.6927L64.5378 80.6274L65.329 80.3028L65.3557 80.3681ZM63.7734 81.0172L62.9823 81.3418L62.9555 81.2765L63.7466 80.952L63.7734 81.0172ZM62.1911 81.6664L61.3999 81.991L61.3732 81.9257L62.1643 81.6011L62.1911 81.6664ZM60.6088 82.3155L59.8176 82.6401L59.7908 82.5748L60.582 82.2503L60.6088 82.3155ZM59.0264 82.9647L58.2353 83.2892L58.2085 83.224L58.9997 82.8994L59.0264 82.9647ZM57.4441 83.6138L56.653 83.9384L56.6262 83.8731L57.4173 83.5485L57.4441 83.6138ZM55.8618 84.263L55.0706 84.5875L55.0439 84.5223L55.835 84.1977L55.8618 84.263ZM54.2795 84.9121L53.4883 85.2367L53.4615 85.1714L54.2527 84.8468L54.2795 84.9121ZM52.6971 85.5613L51.906 85.8858L51.8792 85.8205L52.6704 85.496L52.6971 85.5613ZM51.1148 86.2104L50.3237 86.535L50.2969 86.4697L51.088 86.1451L51.1148 86.2104Z" fill="#E6E6E6"/>
<path d="M57.5059 86.7944L57.1143 86.9551L57.141 87.0204L57.5327 86.8597L57.5059 86.7944Z" fill="#E6E6E6"/>
<path d="M73.6377 87.2683L73.2461 87.429L73.2729 87.4942L73.6645 87.3336L73.6377 87.2683Z" fill="#E6E6E6"/>
<path d="M64.4943 87.8138L63.7149 88.1336L63.6881 88.0683L64.4675 87.7485L64.4943 87.8138ZM62.9355 88.4533L62.1561 88.7731L62.1293 88.7078L62.9087 88.388L62.9355 88.4533ZM61.3767 89.0928L60.5973 89.4126L60.5705 89.3473L61.3499 89.0275L61.3767 89.0928ZM59.8178 89.7323L59.0384 90.0521L59.0117 89.9868L59.7911 89.667L59.8178 89.7323ZM58.259 90.3718L57.4796 90.6916L57.4528 90.6263L58.2322 90.3066L58.259 90.3718ZM56.7002 91.0113L55.9208 91.3311L55.894 91.2658L56.6734 90.9461L56.7002 91.0113ZM55.1414 91.6508L54.362 91.9706L54.3352 91.9053L55.1146 91.5856L55.1414 91.6508ZM53.5826 92.2903L52.8031 92.6101L52.7764 92.5448L53.5558 92.2251L53.5826 92.2903Z" fill="#E6E6E6"/>
<path d="M59.9971 92.8647L59.6055 93.0254L59.6322 93.0907L60.0239 92.93L59.9971 92.8647Z" fill="#E6E6E6"/>
<path d="M67.1797 93.2732L66.7881 93.4338L66.8149 93.4991L67.2065 93.3384L67.1797 93.2732Z" fill="#E6E6E6"/>
<path d="M66.0128 93.828L65.2109 94.1569L65.1842 94.0917L65.9861 93.7627L66.0128 93.828ZM64.409 94.4859L63.6071 94.8149L63.5804 94.7496L64.3823 94.4206L64.409 94.4859ZM62.8052 95.1439L62.0033 95.4728L61.9766 95.4076L62.7785 95.0786L62.8052 95.1439Z" fill="#E6E6E6"/>
<path d="M61.1758 95.7363L60.7842 95.897L60.811 95.9622L61.2026 95.8016L61.1758 95.7363Z" fill="#E6E6E6"/>
<path d="M69.1914 98.1743L68.7998 98.335L68.8266 98.4002L69.2182 98.2396L69.1914 98.1743Z" fill="#E6E6E6"/>
<path d="M68.0236 98.7288L67.2217 99.0578L67.1949 98.9925L67.9968 98.6636L68.0236 98.7288ZM66.4198 99.3868L65.6179 99.7158L65.5911 99.6505L66.393 99.3215L66.4198 99.3868ZM64.816 100.045L64.0141 100.374L63.9873 100.308L64.7892 99.9795L64.816 100.045Z" fill="#E6E6E6"/>
<path d="M63.1846 100.637L62.793 100.798L62.8197 100.863L63.2114 100.702L63.1846 100.637Z" fill="#E6E6E6"/>
<path d="M57.0498 100.008L79.6232 90.747C80.1695 90.5222 80.6043 90.0898 80.8322 89.5448C81.0602 88.9997 81.0626 88.3865 80.839 87.8397L76.2781 76.7224L76.234 76.742L70.6945 89.9872L66.586 88.2695C66.5102 88.2376 66.4281 88.2236 66.3459 88.2288C66.2638 88.2339 66.184 88.258 66.1128 88.2991C66.0058 88.3635 65.923 88.4613 65.8773 88.5775L62.9741 95.5184L59.9702 94.2627C59.9054 94.2356 59.8359 94.2215 59.7656 94.2212C59.6953 94.221 59.6257 94.2346 59.5607 94.2612C59.4957 94.2879 59.4366 94.3271 59.3867 94.3767C59.3369 94.4262 59.2973 94.4851 59.2702 94.5499C59.251 94.597 57.3988 99.1414 57.0498 100.008Z" fill="#29B1B3"/>
<path d="M56.9791 100.113L56.9141 100.085L59.2369 94.5308C59.2984 94.3842 59.4155 94.268 59.5626 94.2076C59.7097 94.1473 59.8747 94.1478 60.0215 94.209L62.9661 95.4404L65.8527 88.5377C65.9142 88.3911 66.0313 88.2749 66.1784 88.2145C66.3255 88.1542 66.4906 88.1546 66.6373 88.2158L70.6865 89.9092L76.2544 76.5947L76.3195 76.6219L70.7243 90.0015L66.6101 88.2809C66.546 88.2541 66.4772 88.2402 66.4077 88.2399C66.3382 88.2397 66.2694 88.2532 66.2051 88.2795C66.1408 88.3059 66.0824 88.3447 66.0331 88.3937C65.9838 88.4426 65.9446 88.5008 65.9178 88.5649L63.0039 95.5327L59.9943 94.274C59.8648 94.2201 59.7192 94.2197 59.5894 94.2729C59.4596 94.3262 59.3563 94.4287 59.302 94.5581L56.9791 100.113Z" fill="#4A4A4A"/>
<path d="M67.1931 93.7992C67.4658 93.7992 67.6869 93.5781 67.6869 93.3054C67.6869 93.0326 67.4658 92.8115 67.1931 92.8115C66.9203 92.8115 66.6992 93.0326 66.6992 93.3054C66.6992 93.5781 66.9203 93.7992 67.1931 93.7992Z" fill="#4A4A4A"/>
<path d="M65.6511 87.7943C65.9238 87.7943 66.1449 87.5732 66.1449 87.3005C66.1449 87.0277 65.9238 86.8066 65.6511 86.8066C65.3783 86.8066 65.1572 87.0277 65.1572 87.3005C65.1572 87.5732 65.3783 87.7943 65.6511 87.7943Z" fill="#4A4A4A"/>
<path d="M75.7077 76.432C75.9805 76.432 76.2016 76.2109 76.2016 75.9382C76.2016 75.6654 75.9805 75.4443 75.7077 75.4443C75.435 75.4443 75.2139 75.6654 75.2139 75.9382C75.2139 76.2109 75.435 76.432 75.7077 76.432Z" fill="#4A4A4A"/>
<path d="M48.0672 92.745C48.324 92.6173 48.5496 92.4348 48.7281 92.2104C48.9067 91.9861 49.0339 91.7253 49.1008 91.4464C49.1676 91.1676 49.1726 90.8774 49.1152 90.5965C49.0578 90.3155 48.9395 90.0506 48.7687 89.8203L50.2354 75.4797H47.0656L45.9 89.4825C45.5321 89.7952 45.2917 90.2319 45.2244 90.71C45.157 91.1881 45.2674 91.6743 45.5345 92.0764C45.8016 92.4786 46.207 92.7687 46.6738 92.892C47.1406 93.0152 47.6364 92.9629 48.0672 92.745Z" fill="#FFB8B8"/>
<path d="M50.9768 67.5656C53.4535 67.5656 55.4613 65.5578 55.4613 63.081C55.4613 60.6042 53.4535 58.5964 50.9768 58.5964C48.5 58.5964 46.4922 60.6042 46.4922 63.081C46.4922 65.5578 48.5 67.5656 50.9768 67.5656Z" fill="#FFB8B8"/>
<path d="M51.8217 83.8314C51.6421 83.8314 51.4676 83.7724 51.3248 83.6636C51.182 83.5548 51.0789 83.4022 51.0312 83.2291C50.6719 81.9237 49.7371 79.7166 48.2529 76.6687C47.918 75.9798 47.7325 75.2278 47.7087 74.4621C47.6848 73.6964 47.8232 72.9344 48.1146 72.2259C48.406 71.5174 48.8439 70.8786 49.3995 70.3513C49.9552 69.8239 50.6161 69.42 51.3388 69.1661C52.0237 68.9243 52.7502 68.8223 53.4752 68.8661C54.2002 68.91 54.9091 69.0988 55.5598 69.4214C56.2106 69.744 56.79 70.1939 57.2639 70.7443C57.7378 71.2948 58.0964 71.9348 58.3186 72.6263C59.469 76.2331 59.4135 80.0967 59.3362 81.5902C59.3266 81.7701 59.2583 81.9419 59.1418 82.0793C59.0252 82.2166 58.8669 82.312 58.6909 82.3507L51.9979 83.8123C51.94 83.8251 51.8809 83.8315 51.8217 83.8314Z" fill="#27147A"/>
<path d="M58.3031 126.416H60.5415L61.6065 117.782L58.3027 117.782L58.3031 126.416Z" fill="#FFB8B8"/>
<path d="M64.8584 128.495L57.8231 128.495L57.823 125.777L62.1401 125.777C62.4971 125.777 62.8505 125.847 63.1803 125.983C63.5101 126.12 63.8098 126.32 64.0622 126.573C64.3146 126.825 64.5148 127.125 64.6514 127.454C64.7881 127.784 64.8584 128.138 64.8584 128.495Z" fill="#2F2E41"/>
<path d="M35.918 123.515L37.8797 124.594L42.9728 117.541L40.0778 115.949L35.918 123.515Z" fill="#FFB8B8"/>
<path d="M40.6631 128.495L34.4981 125.106L35.8076 122.724L39.5907 124.804C40.2224 125.151 40.6903 125.735 40.8914 126.427C41.0925 127.12 41.0104 127.863 40.6631 128.495Z" fill="#2F2E41"/>
<path d="M58.1998 121.624C58.0003 121.624 57.8077 121.551 57.658 121.419C57.5082 121.287 57.4114 121.106 57.3858 120.908L54.5863 99.3352C54.5739 99.2398 54.5317 99.1507 54.4657 99.0807C54.3997 99.0107 54.3132 98.9634 54.2187 98.9454C54.1242 98.9275 54.0264 98.9399 53.9393 98.9808C53.8522 99.0218 53.7803 99.0892 53.7339 99.1735L42.0667 120.341C41.9704 120.514 41.8153 120.646 41.6296 120.715C41.4439 120.783 41.2399 120.782 41.0547 120.713L38.5116 119.744C38.4093 119.705 38.3158 119.646 38.2366 119.57C38.1575 119.494 38.0942 119.404 38.0506 119.303C38.0069 119.203 37.9838 119.095 37.9825 118.986C37.9812 118.876 38.0018 118.767 38.0431 118.666L46.1252 98.8119C46.1457 98.7614 46.1595 98.7086 46.1665 98.6546C47.2612 90.1819 50.0464 85.8732 50.8739 84.7545C50.9344 84.6723 50.9742 84.5767 50.9899 84.4759C51.0057 84.3751 50.9969 84.2719 50.9645 84.1752L50.8507 83.8339C50.8053 83.6984 50.796 83.5535 50.8237 83.4133C50.8514 83.2732 50.9152 83.1427 51.0088 83.0347C53.9907 79.6383 59.1881 81.4916 59.2403 81.5107L59.2663 81.5203L59.2826 81.5426C65.1104 89.535 62.9557 115.494 62.4646 120.617C62.4462 120.809 62.3604 120.989 62.2223 121.124C62.0841 121.26 61.9026 121.342 61.7097 121.356L58.2636 121.621C58.2422 121.623 58.2209 121.624 58.1998 121.624Z" fill="#2F2E41"/>
<path d="M68.4111 68.2903C68.3887 68.3888 68.3741 68.4889 68.3674 68.5897L60.5239 73.1146L58.6174 72.0171L56.585 74.6778L59.7712 76.9488C60.0286 77.1323 60.3386 77.2273 60.6546 77.2196C60.9706 77.2119 61.2756 77.1019 61.5237 76.9061L69.6118 70.5254C69.9768 70.6605 70.3743 70.6813 70.7514 70.585C71.1285 70.4887 71.4673 70.2798 71.7229 69.9862C71.9784 69.6927 72.1385 69.3282 72.1818 68.9414C72.2252 68.5546 72.1498 68.1638 71.9656 67.8209C71.7814 67.4781 71.4972 67.1994 71.1508 67.022C70.8043 66.8446 70.4121 66.7768 70.0262 66.8278C69.6404 66.8787 69.2791 67.0459 68.9906 67.3072C68.7021 67.5684 68.5 67.9113 68.4111 68.2903Z" fill="#FFB8B8"/>
<path d="M60.2621 73.3289L57.7271 76.6144C57.655 76.7079 57.5636 76.7847 57.4591 76.8397C57.3546 76.8947 57.2394 76.9265 57.1216 76.9329C57.0037 76.9394 56.8858 76.9203 56.7759 76.8771C56.666 76.8339 56.5667 76.7675 56.4848 76.6825L53.615 73.7024C53.1388 73.3307 52.8295 72.7853 52.7548 72.1858C52.6801 71.5863 52.8462 70.9817 53.2167 70.5045C53.5871 70.0273 54.1316 69.7164 54.7309 69.6401C55.3302 69.5638 55.9353 69.7282 56.4135 70.0973L60.0128 72.11C60.1159 72.1676 60.2053 72.2468 60.275 72.3422C60.3446 72.4375 60.3929 72.5467 60.4166 72.6624C60.4403 72.7781 60.4387 72.8975 60.4121 73.0125C60.3854 73.1275 60.3343 73.2354 60.2621 73.3289Z" fill="#27147A"/>
<path d="M58.4371 79.0377L54.3534 78.3003C54.2372 78.2793 54.1269 78.2335 54.03 78.1661C53.9331 78.0986 53.8518 78.0111 53.7918 77.9094C53.7318 77.8077 53.6944 77.6943 53.6822 77.5768C53.6699 77.4594 53.6831 77.3407 53.7209 77.2288L55.0448 73.3092C55.1555 72.7152 55.4972 72.1895 55.9949 71.8471C56.4927 71.5047 57.1059 71.3737 57.7001 71.4828C58.2943 71.5919 58.821 71.9322 59.1647 72.4291C59.5084 72.9259 59.641 73.5388 59.5335 74.1333L59.4044 78.2551C59.4006 78.3731 59.3715 78.4889 59.319 78.5947C59.2664 78.7004 59.1917 78.7936 59.0999 78.8679C59.0081 78.9421 58.9014 78.9957 58.787 79.025C58.6727 79.0543 58.5533 79.0586 58.4371 79.0377H58.4371Z" fill="#27147A"/>
<path d="M51.686 62.0495C52.8386 62.8384 54.3521 63.6493 55.5293 62.8092C55.8975 62.5288 56.1651 62.1366 56.2918 61.6915C56.4185 61.2463 56.3977 60.772 56.2324 60.3397C55.6687 58.7277 54.1199 58.018 52.6389 57.4741C50.7136 56.7669 48.6173 56.2043 46.6297 56.7107C44.6422 57.2172 42.8856 59.1415 43.2444 61.161C43.533 62.7849 45.0648 64.1362 44.8474 65.7712C44.6285 67.4168 42.778 68.2829 41.1442 68.577C39.5105 68.8711 37.6823 68.9656 36.5081 70.1391C35.0104 71.6361 35.3844 74.3118 36.7937 75.8924C38.2031 77.4729 40.3299 78.1894 42.3908 78.6764C45.1213 79.3217 48.0746 79.6609 50.6679 78.5899C53.2612 77.519 55.2793 74.6361 54.5281 71.9328C54.2107 70.7909 53.4632 69.8259 52.7408 68.8864C52.0183 67.9469 51.2868 66.9644 51.0112 65.8118C50.7816 64.8512 50.9516 63.736 51.5885 63.0155C51.7044 62.8893 51.7773 62.7298 51.7968 62.5596C51.8163 62.3895 51.7814 62.2175 51.6971 62.0685L51.686 62.0495Z" fill="#2F2E41"/>
</g>
<defs>
<clipPath id="clip0_1_9056">
<rect width="264" height="128" fill="white"/>
</clipPath>
</defs>
</svg>
