<svg width="54" height="22" viewBox="0 0 54 22" fill="none" xmlns="http://www.w3.org/2000/svg">
<g clip-path="url(#clip0_315_5814)">
<path d="M3.05221 9.03379C3.05221 8.49957 3.49663 8.179 4.1556 8.179C5.15171 8.179 5.74938 8.78957 6.07121 9.20171L7.92554 7.81264C7.41981 6.97314 6.30108 5.91992 4.2782 5.91992C2.10206 5.91992 0.401 7.09526 0.401 9.06436C0.401 12.8498 5.44289 12.2087 5.44289 13.842C5.44289 14.4526 4.93717 14.8036 4.14027 14.8036C2.92961 14.8036 2.22466 14.2541 1.68829 13.6436L0.0332031 15.1089C0.600224 16.0247 1.90284 17.0779 4.01768 17.0779C6.31641 17.0779 8.12475 15.7805 8.12475 13.7046C8.10941 9.90386 3.05221 10.7129 3.05221 9.03379Z" fill="white"/>
<path d="M28.2763 7.29333C27.9698 6.8812 26.8817 5.9043 25.0887 5.9043C22.0544 5.9043 19.8936 8.22444 19.8936 11.4909C19.8936 14.7574 21.9164 17.0624 24.9968 17.0624C26.8511 17.0624 27.8932 16.0091 28.1231 15.7039V16.9555C28.1231 18.604 26.7132 19.0619 25.1807 19.0619C23.7095 19.0619 22.4835 18.5124 22.1464 18.3292L21.2882 20.4815C22.2536 21.0157 23.7401 21.4584 25.2113 21.4584C28.3529 21.4584 30.9428 20.1762 30.9428 16.2228V6.17905H28.2916V7.29333H28.2763ZM25.4565 14.5896C23.8627 14.5896 22.7287 13.3532 22.7287 11.4757C22.7287 9.61344 23.8474 8.39237 25.4412 8.39237C27.0963 8.39237 28.1997 9.67451 28.1997 11.4757C28.1844 13.3684 27.0809 14.5896 25.4565 14.5896Z" fill="white"/>
<path d="M44.3676 6.17969H41.5479V16.8035H44.3676V6.17969Z" fill="white"/>
<path d="M48.8881 9.03379C48.8881 8.49957 49.3326 8.179 49.9916 8.179C50.9877 8.179 51.5853 8.78957 51.9072 9.20171L53.7615 7.81264C53.2557 6.97314 52.137 5.91992 50.1141 5.91992C47.938 5.91992 46.237 7.09526 46.237 9.06436C46.237 12.8498 51.2788 12.2087 51.2788 13.842C51.2788 14.4526 50.7731 14.8036 49.9762 14.8036C48.7656 14.8036 48.0606 14.2541 47.5242 13.6436L45.8691 15.1089C46.4362 16.0247 47.7388 17.0779 49.8536 17.0779C52.1524 17.0779 53.9607 15.7805 53.9607 13.7046C53.9453 9.90386 48.8881 10.7129 48.8881 9.03379Z" fill="white"/>
<path d="M43.3093 4.02901C44.1741 3.82561 44.7098 2.96237 44.5055 2.10094C44.3013 1.23949 43.4346 0.706057 42.5698 0.909467C41.7048 1.11288 41.1693 1.97611 41.3735 2.83755C41.5778 3.69899 42.4444 4.23243 43.3093 4.02901Z" fill="white"/>
<path d="M35.8015 7.72099V6.17932H33.043V16.8031H35.8627V12.1781C35.8627 9.8427 37.196 8.14842 39.9852 8.91156V6.07248C37.8856 5.46191 36.3072 6.34723 35.8015 7.72099Z" fill="white"/>
<path d="M16.6454 7.21744L11.4043 20.833H13.1053C13.7643 20.833 14.362 20.4209 14.6072 19.8103L19.8483 6.19475H18.1473C17.4883 6.17948 16.8906 6.59161 16.6454 7.21744Z" fill="white"/>
<path d="M14.2234 13.2927L11.4955 6.17969H8.67578L11.419 13.2927H14.2234Z" fill="white"/>
</g>
<defs>
<clipPath id="clip0_315_5814">
<rect width="54" height="21" fill="white" transform="translate(0 0.5)"/>
</clipPath>
</defs>
</svg>
