<svg width="32" height="32" viewBox="0 0 32 32" fill="none" xmlns="http://www.w3.org/2000/svg">
<rect width="32" height="32" rx="4" fill="#29B1B3"/>
<path d="M21.3481 9.58333C18.601 9.58333 16.295 11.8578 15.6992 14.9029C14.6966 12.8232 12.8145 11.4167 10.6518 11.4167H8.66663V11.875C8.66663 15.6648 11.2705 18.75 14.4731 18.75H15.5416V22.1875C15.5416 22.3135 15.6448 22.4167 15.7708 22.4167H16.2291C16.3552 22.4167 16.4583 22.3135 16.4583 22.1875V16.9167H17.5268C20.7294 16.9167 23.3333 13.8315 23.3333 10.0417V9.58333H21.3481ZM14.4731 17.8333C11.9036 17.8333 9.78954 15.4042 9.59762 12.3333H10.6518C13.2213 12.3333 15.3325 14.7625 15.5273 17.8333H14.4731ZM17.5268 16H16.4726C16.6645 12.9292 18.7786 10.5 21.3481 10.5H22.4023C22.2104 13.5708 20.0963 16 17.5268 16Z" fill="white"/>
</svg>
