<svg width="24" height="24" viewBox="0 0 24 24" fill="none" xmlns="http://www.w3.org/2000/svg">
<path d="M11.2016 6.85484C11.2016 6.5621 11.4411 6.32258 11.7339 6.32258L12.2661 6.32258C12.5589 6.32258 12.7984 6.5621 12.7984 6.85484L12.7984 17.1452C12.7984 17.4379 12.5589 17.6774 12.2661 17.6774L11.7339 17.6774C11.4411 17.6774 11.2016 17.4379 11.2016 17.1452L11.2016 6.85484ZM12 23C5.92339 23 0.999999 18.0766 1 12C1 5.92339 5.92339 0.999999 12 1C18.0766 1 23 5.92339 23 12C23 18.0766 18.0766 23 12 23ZM12 21.5806C17.3181 21.5806 21.5806 17.2649 21.5806 12C21.5806 6.68185 17.2649 2.41935 12 2.41935C6.68186 2.41935 2.41936 6.73508 2.41935 12C2.41935 17.3181 6.73508 21.5806 12 21.5806Z" fill="white"/>
</svg>
